# AST/ASF file generated using VICON BodyLanguage
# -----------------------------------------------
:version 1.10
:name VICON
:units
  mass 1.0
  length 0.45
  angle deg
:documentation
   .ast/.asf automatically generated from VICON data using
   VICON BodyBuilder and BodyLanguage model FoxedUp or BRILLIANT.MOD
:root
   order TX TY TZ RX RY RZ
   axis XYZ
   position 0 0 0  
   orientation 0 0 0 
:bonedata
  begin
     id 1 
     name lhipjoint
     direction 0.570549 -0.739093 0.358072 
     length 2.41801 
     axis 0 0 0  XYZ
  end
  begin
     id 2 
     name lfemur
     direction 0.34202 -0.939693 0  
     length 7.44434  
     axis 0 0 20  XYZ
    dof rx ry rz
    limits (-160.0 20.0)
           (-70.0 70.0)
           (-60.0 70.0)
  end
  begin
     id 3 
     name ltibia
     direction 0.34202 -0.939693 0   
     length 7.60047   
     axis 0 0 20   XYZ
    dof rx
    limits (-10.0 170.0)
  end
  begin
     id 4 
     name lfoot
     direction 0.0909041 -0.249757 0.964032   
     length 2.03437   
     axis -90 7.62852e-016 20   XYZ
    dof rx rz
    limits (-45.0 90.0)
           (-70.0 20.0)
  end
  begin
     id 5 
     name ltoes
     direction 1.53547e-011 -4.2174e-011 1   
     length 1.02054   
     axis -90 7.62852e-016 20   XYZ
    dof rx
    limits (-90.0 20.0)
  end
  begin
     id 6 
     name rhipjoint
     direction -0.558096 -0.746754 0.361784   
     length 2.3932  
     axis 0 0 0  XYZ 
  end
  begin
     id 7 
     name rfemur
     direction -0.34202 -0.939693 0   
     length 7.3886   
     axis 0 0 -20   XYZ
    dof rx ry rz
    limits (-160.0 20.0)
           (-70.0 70.0)
           (-70.0 60.0)
  end
  begin
     id 8 
     name rtibia
     direction -0.34202 -0.939693 0   
     length 7.4839   
     axis 0 0 -20   XYZ
    dof rx
    limits (-10.0 170.0)
 end
 begin
     id 9 
     name rfoot
     direction -0.114619 -0.314914 0.942174   
     length 2.25127  
     axis -90 -7.62852e-016 -20   XYZ
    dof rx rz
    limits (-45.0 90.0)
           (-20.0 70.0)
  end
  begin
     id 10 
     name rtoes
     direction -1.53518e-011 -4.21881e-011 1   
     length 1.11821   
     axis -90 -7.62852e-016 -20   XYZ
    dof rx
    limits (-90.0 20.0)
  end
  begin
     id 11 
     name lowerback
     direction -0.00902269 0.996426 -0.0839821   
     length 2.25052   
     axis 0 0 0   XYZ
    dof rx ry rz
    limits (-20.0 45.0)
           (-30.0 30.0)
           (-30.0 30.0)
  end
  begin
     id 12 
     name upperback
     direction 0.0370973 0.999169 -0.0168941   
     length 2.24876   
     axis 0 0 0   XYZ
    dof rx ry rz
    limits (-20.0 45.0)
           (-30.0 30.0)
           (-30.0 30.0)
  end
  begin
     id 13 
     name thorax
     direction 0.0402726 0.998931 0.0227027   
     length 2.26408   
     axis 0 0 0   XYZ
    dof rx ry rz
    limits (-20.0 45.0)
           (-30.0 30.0)
           (-30.0 30.0)
  end
  begin
     id 14 
     name lowerneck
     direction -0.0733697 0.98508 0.155675   
     length 1.58204   
     axis 0 0 0   XYZ
    dof rx ry rz
    limits (-20.0 45.0)
           (-30.0 30.0)
           (-30.0 30.0)
  end
  begin
     id 15 
     name upperneck
     direction 0.0426554 0.993501 -0.105526   
     length 1.61222   
     axis 0 0 0   XYZ
    dof rx ry rz
    limits (-20.0 45.0)
           (-30.0 30.0)
           (-30.0 30.0)
  end
  begin
     id 16
     name head
     direction 0.020792 0.998384 -0.0528868  
     length 1.61527  
     axis 0 0 0   XYZ
    dof rx ry rz
    limits (-20.0 45.0)
           (-30.0 30.0)
           (-30.0 30.0)
  end
  begin
     id 17 
     name lclavicle
     direction 0.967109 0.155462 -0.201325  
     length 3.59357  
     axis 0 0 0   XYZ
    dof ry rz
    limits (-20.0 10.0)
           (0.0 20.0)
  end
  begin
     id 18 
     name lhumerus
     direction 1 -4.48968e-011 2.38195e-027   
     length 5.38154   
     axis 180 -30 -90   XYZ
    dof rx ry rz
    limits (-60.0 90.0)
           (-90.0 90.0)
           (-90.0 90.0)
  end
  begin
     id 19
     name lradius
     direction 1 -4.48961e-011 4.85371e-027   
     length 3.33312   
     axis 180 -30 -90   XYZ
    dof rx
    limits (-10.0 170.0)
  end
  begin
     id 20
     name lwrist
     direction 1 -4.48961e-011 4.76515e-027   
     length 1.66656   
     axis -3.27502e-015 90 90   XYZ
    dof ry
    limits (-180.0 0.0)
 end
  begin
     id 21 
     name lhand
     direction 1 -4.48951e-011 9.53074e-027   
     length 0.710789   
     axis -6.08098e-015 90 90   XYZ
    dof rx rz
    limits (-90.0 90.0)
           (-45.0 45.0)
  end
  begin
     id 22 
     name lfingers
     direction 1 -4.48953e-011 1.90613e-026   
     length 0.573057   
     axis -1.21619e-014 90 90   XYZ
    dof rx
    limits (0.0 90.0)
  end
  begin
     id 23
     name lthumb
     direction 0.707107 -6.34973e-011 0.707107   
     length 0.822798   
     axis -90 45 -9.86923e-015   XYZ
    dof rx rz
    limits (-45.0 45.0)
           (-45.0 45.0)
  end
  begin
     id 24 
     name rclavicle
     direction -0.9585 0.265289 -0.104398   
     length 3.42039  
     axis 0 0 0   XYZ 
    dof ry rz
    limits (-10.0 20.0)
           (-20.0 0.0)
  end
  begin
     id 25 
     name rhumerus
     direction -1 -4.48977e-011 2.21478e-027  
     length 5.16954   
     axis 180 30 90   XYZ
    dof rx ry rz
    limits (-90.0 60.0)
           (-90.0 90.0)
           (-90.0 90.0)
  end
  begin
     id 26 
     name rradius
     direction -1 -4.48967e-011 5.63677e-027   
     length 3.38287   
     axis 180 30 90   XYZ
    dof rx
    limits (-10.0 170.0)
  end
  begin
     id 27 
     name rwrist
     direction -1 -4.48967e-011 4.76501e-027   
     length 1.69144   
     axis -3.27502e-015 -90 -90   XYZ
    dof ry
    limits (-180.0 0.0)
  end
  begin
     id 28
     name rhand
     direction -1 -4.48902e-011 9.53292e-027   
     length 0.817967   
     axis -6.08098e-015 -90 -90   XYZ
    dof rx rz
    limits (-90.0 90.0)
           (-45.0 45.0)
  end
  begin
     id 29
     name rfingers
     direction -1 -4.49012e-011 1.90561e-026   
     length 0.659466   
     axis -1.21619e-014 -90 -90   XYZ
    dof rx
    limits (0.0 90.0)
  end
  begin
     id 30
     name rthumb
     direction -0.707107 -6.34944e-011 0.707107   
     length 0.946865   
     axis -90 -45 9.86923e-015   XYZ
    dof rx rz
    limits (-45.0 45.0)
           (-45.0 45.0)
  end
:hierarchy
  begin
    root lhipjoint rhipjoint lowerback
    lhipjoint lfemur
    lfemur ltibia
    ltibia lfoot
    lfoot ltoes
    rhipjoint rfemur
    rfemur rtibia
    rtibia rfoot
    rfoot rtoes
    lowerback upperback
    upperback thorax
    thorax lowerneck lclavicle rclavicle
    lowerneck upperneck
    upperneck head
    lclavicle lhumerus
    lhumerus lradius
    lradius lwrist
    lwrist lhand lthumb
    lhand lfingers
    rclavicle rhumerus
    rhumerus rradius
    rradius rwrist
    rwrist rhand rthumb
    rhand rfingers
  end

#!OML:ASF F:\twosubjects\two\wednesday\Session 1\Justin1.ASF
:FULLY-SPECIFIED
:DEGREES
1
root 16.1477 18.1778 25.4822 -176.293 6.78427 -179.202
lowerback 1.32147 0.320745 -1.00874
upperback 4.88624 0.646723 1.66666
thorax 4.26602 0.35742 2.30974
lowerneck -11.4033 -1.03758 -12.7371
upperneck 32.3785 5.3682 -0.692959
head 12.5415 1.8557 2.90631
rclavicle -6.4605e-015 1.03368e-014
rhumerus -15.5798 -0.387507 -80.6134
rradius 46.6542
rwrist -17.8055
rhand -12.3472 19.9588
rfingers 7.12502
rthumb 13.7224 -9.56869
lclavicle -6.4605e-015 1.03368e-014
lhumerus -58.0605 -50.459 95.0788
lradius 54.6245
lwrist 5.35856
lhand -10.3016 36.4845
lfingers 7.12502
lthumb 15.6932 65.8681
rfemur -3.73577 1.79103 19.9588
rtibia 53.4312
rfoot -3.70743 -17.1704
rtoes 12.9379
lfemur -22.0193 7.5311 -19.7806
ltibia 30.5495
lfoot -8.29465 -1.33676
ltoes -13.7644
2
root 16.1181 18.2151 25.3218 -176.374 6.69087 -179.869
lowerback 1.28589 0.277043 -1.73815
upperback 4.82818 0.589266 1.57943
thorax 4.2255 0.298302 2.6274
lowerneck -11.5607 -1.08762 -12.5478
upperneck 32.7494 5.44445 -0.86859
head 12.74 1.8857 2.83825
rclavicle 3.77691e-015 -2.18663e-014
rhumerus -15.8551 -0.495167 -80.597
rradius 46.3108
rwrist -17.5733
rhand -13.0285 19.9944
rfingers 7.12502
rthumb 13.0658 -9.57634
lclavicle 3.77691e-015 -2.18663e-014
lhumerus -57.7217 -50.2775 95.1627
lradius 54.0855
lwrist 5.36164
lhand -11.1652 35.78
lfingers 7.12502
lthumb 14.8614 65.227
rfemur -4.85169 1.39151 19.244
rtibia 54.7999
rfoot -4.75271 -17.7846
rtoes 14.0316
lfemur -21.3703 7.86475 -20.744
ltibia 29.9354
lfoot -8.49111 -1.59589
ltoes -15.3958
3
root 16.0858 18.2121 25.1737 -176.427 6.34043 -180.281
lowerback 2.00556 0.252368 -2.30723
upperback 4.28103 0.512277 1.69064
thorax 3.25052 0.243281 3.0462
lowerneck -11.3137 -1.17032 -12.671
upperneck 33.2435 5.53425 -0.883325
head 12.9004 1.93588 2.88645
rclavicle 9.93923e-015 0
rhumerus -16.9621 -0.746128 -80.3216
rradius 46.0648
rwrist -17.1745
rhand -12.9823 19.9554
rfingers 7.12502
rthumb 13.1103 -9.61252
lclavicle 9.93923e-015 0
lhumerus -58.2345 -49.8124 95.8947
lradius 53.6841
lwrist 4.349
lhand -9.00882 36.271
lfingers 7.12502
lthumb 16.9379 65.5524
rfemur -6.03242 0.727387 18.8482
rtibia 56.3027
rfoot -5.4203 -17.913
rtoes 15.1758
lfemur -20.2868 7.33295 -21.2105
ltibia 29.4371
lfoot -8.9942 -1.63564
ltoes -12.5989
4
root 16.0491 18.2139 25.0333 -176.551 6.08709 -180.51
lowerback 1.93248 -0.00742308 -2.43103
upperback 4.34558 0.170356 1.74262
thorax 3.38357 0.0665797 3.16829
lowerneck -11.1694 -0.981212 -12.827
upperneck 32.9928 5.79405 -0.946142
head 12.748 2.03519 2.90821
rclavicle 1.39149e-014 1.98785e-014
rhumerus -17.0636 -0.410398 -80.3797
rradius 45.6734
rwrist -17.0717
rhand -12.5941 19.9335
rfingers 7.12502
rthumb 13.4845 -9.60991
lclavicle 1.39149e-014 1.98785e-014
lhumerus -57.2875 -48.2327 94.5096
lradius 54.4471
lwrist 1.97739
lhand -6.59802 35.5728
lfingers 7.12502
lthumb 19.2574 64.6393
rfemur -7.15682 0.178007 18.6443
rtibia 57.6306
rfoot -5.53722 -17.775
rtoes 16.2191
lfemur -19.2986 6.83011 -21.5138
ltibia 28.9733
lfoot -9.4485 -1.49584
ltoes -11.2259
5
root 16.0157 18.2163 24.8946 -176.808 6.12139 -180.705
lowerback 2.04846 -0.0902614 -2.54185
upperback 4.44812 0.0682544 1.73377
thorax 3.43327 0.0142329 3.22114
lowerneck -11.1226 -0.915553 -12.6575
upperneck 32.8838 5.91212 -1.21234
head 12.701 2.08 2.78816
rclavicle 2.18663e-015 2.22639e-014
rhumerus -17.2398 -0.192276 -80.4458
rradius 45.3118
rwrist -17.2261
rhand -12.8519 20.1676
rfingers 7.12502
rthumb 13.236 -9.3922
lclavicle 2.18663e-015 2.22639e-014
lhumerus -56.3967 -48.2052 94.3229
lradius 53.2285
lwrist 1.07563
lhand -4.32213 35.2371
lfingers 7.12502
lthumb 21.4446 64.0702
rfemur -8.17632 -0.11016 18.4393
rtibia 58.8107
rfoot -5.82549 -17.3822
rtoes 17.2063
lfemur -18.3438 6.96556 -21.8297
ltibia 28.615
lfoot -9.86604 -1.49959
ltoes -11.9321
6
root 15.9817 18.2199 24.745 -177.15 6.306 -180.743
lowerback 2.20585 -0.0593514 -2.37428
upperback 4.59585 0.123626 1.6594
thorax 3.49342 0.0525784 3.05083
lowerneck -11.2234 -0.925545 -12.5343
upperneck 32.9124 5.87735 -1.22909
head 12.7371 2.06869 2.75932
rclavicle 1.2921e-015 -8.74653e-015
rhumerus -17.524 -0.400238 -80.5763
rradius 45.0364
rwrist -17.1258
rhand -13.1246 20.1588
rfingers 7.12502
rthumb 12.9731 -9.41788
lclavicle 1.2921e-015 -8.74653e-015
lhumerus -55.4156 -47.8405 93.491
lradius 52.6731
lwrist -0.285521
lhand -1.53583 35.1582
lfingers 7.12502
lthumb 24.1185 63.6622
rfemur -9.03811 -0.342593 18.3671
rtibia 59.6913
rfoot -5.74324 -17.1332
rtoes 15.7182
lfemur -17.313 7.20446 -21.9807
ltibia 28.4055
lfoot -10.2792 -1.33044
ltoes -14.0387
7
root 15.9568 18.2347 24.6165 -177.006 5.73436 -180.916
lowerback 2.63333 -0.214751 -2.55215
upperback 4.27445 -0.113182 1.69711
thorax 2.93678 -0.0672856 3.18568
lowerneck -11.3529 -1.09237 -12.7585
upperneck 33.2565 5.70946 -0.990471
head 12.9098 1.98661 2.88385
rclavicle 1.07344e-014 -1.27222e-014
rhumerus -18.226 -0.738287 -80.5625
rradius 44.8036
rwrist -16.8876
rhand -13.0913 19.9902
rfingers 7.12502
rthumb 13.0052 -9.58443
lclavicle 1.07344e-014 -1.27222e-014
lhumerus -55.1831 -47.334 93.2248
lradius 52.6517
lwrist -1.14887
lhand -0.327197 34.6119
lfingers 7.12502
lthumb 25.2769 62.9573
rfemur -10.4445 -1.23407 18.3123
rtibia 60.4297
rfoot -5.51849 -17.0856
rtoes 12.1698
lfemur -17.0583 6.92671 -22.2748
ltibia 28.3323
lfoot -10.5011 -1.56761
ltoes -13.6416
